name C:\Users\u0101727\Documents\MyRepositories\upper-imu-dc\OpenSim\subject0\MA\MA_Splines\angle_in_n6_dof6_4.mot
datacolumns 7
datarows 81
range 449.93000000 450.73000000
endheader 
time	clav_prot	clav_elev	scapula_abduction	scapula_elevation	scapula_upward_rot	scapula_winging	
        449.93000000	        -22.39390379	         11.96046367	        -22.45226073	          4.10553212	         70.04131325	          6.73993887	
        449.94000000	        -16.90593547	         11.96046367	        -22.45226073	          4.10553212	         70.04131325	          6.73993887	
        449.95000000	        -44.34577705	         16.86370047	        -22.45226073	          4.10553212	         70.04131325	          6.73993887	
        449.96000000	        -38.85780873	         16.86370047	        -22.45226073	          4.10553212	         70.04131325	          6.73993887	
        449.97000000	        -33.36984042	         16.86370047	        -22.45226073	          4.10553212	         70.04131325	          6.73993887	
        449.98000000	        -27.88187210	         16.86370047	        -22.45226073	          4.10553212	         70.04131325	          6.73993887	
        449.99000000	        -22.39390379	         16.86370047	        -22.45226073	          4.10553212	         70.04131325	          6.73993887	
        450.00000000	        -16.90593547	         16.86370047	        -22.45226073	          4.10553212	         70.04131325	          6.73993887	
        450.01000000	        -44.34577705	         -7.65248351	        -14.01721834	          4.10553212	         70.04131325	          6.73993887	
        450.02000000	        -38.85780873	         -7.65248351	        -14.01721834	          4.10553212	         70.04131325	          6.73993887	
        450.03000000	        -33.36984042	         -7.65248351	        -14.01721834	          4.10553212	         70.04131325	          6.73993887	
        450.04000000	        -27.88187210	         -7.65248351	        -14.01721834	          4.10553212	         70.04131325	          6.73993887	
        450.05000000	        -22.39390379	         -7.65248351	        -14.01721834	          4.10553212	         70.04131325	          6.73993887	
        450.06000000	        -16.90593547	         -7.65248351	        -14.01721834	          4.10553212	         70.04131325	          6.73993887	
        450.07000000	        -44.34577705	         -2.74924671	        -14.01721834	          4.10553212	         70.04131325	          6.73993887	
        450.08000000	        -38.85780873	         -2.74924671	        -14.01721834	          4.10553212	         70.04131325	          6.73993887	
        450.09000000	        -33.36984042	         -2.74924671	        -14.01721834	          4.10553212	         70.04131325	          6.73993887	
        450.10000000	        -27.88187210	         -2.74924671	        -14.01721834	          4.10553212	         70.04131325	          6.73993887	
        450.11000000	        -22.39390379	         -2.74924671	        -14.01721834	          4.10553212	         70.04131325	          6.73993887	
        450.12000000	        -16.90593547	         -2.74924671	        -14.01721834	          4.10553212	         70.04131325	          6.73993887	
        450.13000000	        -44.34577705	          2.15399008	        -14.01721834	          4.10553212	         70.04131325	          6.73993887	
        450.14000000	        -38.85780873	          2.15399008	        -14.01721834	          4.10553212	         70.04131325	          6.73993887	
        450.15000000	        -33.36984042	          2.15399008	        -14.01721834	          4.10553212	         70.04131325	          6.73993887	
        450.16000000	        -27.88187210	          2.15399008	        -14.01721834	          4.10553212	         70.04131325	          6.73993887	
        450.17000000	        -22.39390379	          2.15399008	        -14.01721834	          4.10553212	         70.04131325	          6.73993887	
        450.18000000	        -16.90593547	          2.15399008	        -14.01721834	          4.10553212	         70.04131325	          6.73993887	
        450.19000000	        -44.34577705	          7.05722688	        -14.01721834	          4.10553212	         70.04131325	          6.73993887	
        450.20000000	        -38.85780873	          7.05722688	        -14.01721834	          4.10553212	         70.04131325	          6.73993887	
        450.21000000	        -33.36984042	          7.05722688	        -14.01721834	          4.10553212	         70.04131325	          6.73993887	
        450.22000000	        -27.88187210	          7.05722688	        -14.01721834	          4.10553212	         70.04131325	          6.73993887	
        450.23000000	        -22.39390379	          7.05722688	        -14.01721834	          4.10553212	         70.04131325	          6.73993887	
        450.24000000	        -16.90593547	          7.05722688	        -14.01721834	          4.10553212	         70.04131325	          6.73993887	
        450.25000000	        -44.34577705	         11.96046367	        -14.01721834	          4.10553212	         70.04131325	          6.73993887	
        450.26000000	        -38.85780873	         11.96046367	        -14.01721834	          4.10553212	         70.04131325	          6.73993887	
        450.27000000	        -33.36984042	         11.96046367	        -14.01721834	          4.10553212	         70.04131325	          6.73993887	
        450.28000000	        -27.88187210	         11.96046367	        -14.01721834	          4.10553212	         70.04131325	          6.73993887	
        450.29000000	        -22.39390379	         11.96046367	        -14.01721834	          4.10553212	         70.04131325	          6.73993887	
        450.30000000	        -16.90593547	         11.96046367	        -14.01721834	          4.10553212	         70.04131325	          6.73993887	
        450.31000000	        -44.34577705	         16.86370047	        -14.01721834	          4.10553212	         70.04131325	          6.73993887	
        450.32000000	        -38.85780873	         16.86370047	        -14.01721834	          4.10553212	         70.04131325	          6.73993887	
        450.33000000	        -33.36984042	         16.86370047	        -14.01721834	          4.10553212	         70.04131325	          6.73993887	
        450.34000000	        -27.88187210	         16.86370047	        -14.01721834	          4.10553212	         70.04131325	          6.73993887	
        450.35000000	        -22.39390379	         16.86370047	        -14.01721834	          4.10553212	         70.04131325	          6.73993887	
        450.36000000	        -16.90593547	         16.86370047	        -14.01721834	          4.10553212	         70.04131325	          6.73993887	
        450.37000000	        -44.34577705	         -7.65248351	         -5.58217594	          4.10553212	         70.04131325	          6.73993887	
        450.38000000	        -38.85780873	         -7.65248351	         -5.58217594	          4.10553212	         70.04131325	          6.73993887	
        450.39000000	        -33.36984042	         -7.65248351	         -5.58217594	          4.10553212	         70.04131325	          6.73993887	
        450.40000000	        -27.88187210	         -7.65248351	         -5.58217594	          4.10553212	         70.04131325	          6.73993887	
        450.41000000	        -22.39390379	         -7.65248351	         -5.58217594	          4.10553212	         70.04131325	          6.73993887	
        450.42000000	        -16.90593547	         -7.65248351	         -5.58217594	          4.10553212	         70.04131325	          6.73993887	
        450.43000000	        -44.34577705	         -2.74924671	         -5.58217594	          4.10553212	         70.04131325	          6.73993887	
        450.44000000	        -38.85780873	         -2.74924671	         -5.58217594	          4.10553212	         70.04131325	          6.73993887	
        450.45000000	        -33.36984042	         -2.74924671	         -5.58217594	          4.10553212	         70.04131325	          6.73993887	
        450.46000000	        -27.88187210	         -2.74924671	         -5.58217594	          4.10553212	         70.04131325	          6.73993887	
        450.47000000	        -22.39390379	         -2.74924671	         -5.58217594	          4.10553212	         70.04131325	          6.73993887	
        450.48000000	        -16.90593547	         -2.74924671	         -5.58217594	          4.10553212	         70.04131325	          6.73993887	
        450.49000000	        -44.34577705	          2.15399008	         -5.58217594	          4.10553212	         70.04131325	          6.73993887	
        450.50000000	        -38.85780873	          2.15399008	         -5.58217594	          4.10553212	         70.04131325	          6.73993887	
        450.51000000	        -33.36984042	          2.15399008	         -5.58217594	          4.10553212	         70.04131325	          6.73993887	
        450.52000000	        -27.88187210	          2.15399008	         -5.58217594	          4.10553212	         70.04131325	          6.73993887	
        450.53000000	        -22.39390379	          2.15399008	         -5.58217594	          4.10553212	         70.04131325	          6.73993887	
        450.54000000	        -16.90593547	          2.15399008	         -5.58217594	          4.10553212	         70.04131325	          6.73993887	
        450.55000000	        -44.34577705	          7.05722688	         -5.58217594	          4.10553212	         70.04131325	          6.73993887	
        450.56000000	        -38.85780873	          7.05722688	         -5.58217594	          4.10553212	         70.04131325	          6.73993887	
        450.57000000	        -33.36984042	          7.05722688	         -5.58217594	          4.10553212	         70.04131325	          6.73993887	
        450.58000000	        -27.88187210	          7.05722688	         -5.58217594	          4.10553212	         70.04131325	          6.73993887	
        450.59000000	        -22.39390379	          7.05722688	         -5.58217594	          4.10553212	         70.04131325	          6.73993887	
        450.60000000	        -16.90593547	          7.05722688	         -5.58217594	          4.10553212	         70.04131325	          6.73993887	
        450.61000000	        -44.34577705	         11.96046367	         -5.58217594	          4.10553212	         70.04131325	          6.73993887	
        450.62000000	        -38.85780873	         11.96046367	         -5.58217594	          4.10553212	         70.04131325	          6.73993887	
        450.63000000	        -33.36984042	         11.96046367	         -5.58217594	          4.10553212	         70.04131325	          6.73993887	
        450.64000000	        -27.88187210	         11.96046367	         -5.58217594	          4.10553212	         70.04131325	          6.73993887	
        450.65000000	        -22.39390379	         11.96046367	         -5.58217594	          4.10553212	         70.04131325	          6.73993887	
        450.66000000	        -16.90593547	         11.96046367	         -5.58217594	          4.10553212	         70.04131325	          6.73993887	
        450.67000000	        -44.34577705	         16.86370047	         -5.58217594	          4.10553212	         70.04131325	          6.73993887	
        450.68000000	        -38.85780873	         16.86370047	         -5.58217594	          4.10553212	         70.04131325	          6.73993887	
        450.69000000	        -33.36984042	         16.86370047	         -5.58217594	          4.10553212	         70.04131325	          6.73993887	
        450.70000000	        -27.88187210	         16.86370047	         -5.58217594	          4.10553212	         70.04131325	          6.73993887	
        450.71000000	        -22.39390379	         16.86370047	         -5.58217594	          4.10553212	         70.04131325	          6.73993887	
        450.72000000	        -16.90593547	         16.86370047	         -5.58217594	          4.10553212	         70.04131325	          6.73993887	
        450.73000000	        -44.34577705	         -7.65248351	          2.85286645	          4.10553212	         70.04131325	          6.73993887	
